<svg xmlns="http://www.w3.org/2000/svg" xmlns:xlink="http://www.w3.org/1999/xlink" viewBox="0 0 112.23 90.69"><defs><style>.cls-1{fill:url(#linear-gradient);}.cls-2{fill:url(#linear-gradient-2);}</style><linearGradient id="linear-gradient" x1="57.77" y1="45.35" x2="112.23" y2="45.35" gradientUnits="userSpaceOnUse"><stop offset="0" stop-color="#884bf4"/><stop offset="1" stop-color="#864cef"/></linearGradient><linearGradient id="linear-gradient-2" x1="0" y1="45.35" x2="54.44" y2="45.35" xlink:href="#linear-gradient"/></defs><g id="Layer_2" data-name="Layer 2"><g id="icono"><path id="derecho" class="cls-1" d="M108,53.55a4,4,0,0,0-5.49-1.23L97,55.82v9.43L69.43,78.65V12L97,25.44v9.43l5.52,3.5A4,4,0,0,0,108,37.14l3.63-5.73a4,4,0,0,0-1.23-5.49L69.43,0H57.77V90.69H69.43l40.95-25.92a4,4,0,0,0,1.23-5.49Z"/><path id="izquierdo" class="cls-2" d="M42.7,0h0L1.86,25.62A4,4,0,0,0,.63,31.13l3.68,5.75A4,4,0,0,0,9.77,38.1l5.4-3.38V25.44L42.7,12V78.65L15.17,65.25V56l-5.4-3.38a4,4,0,0,0-5.46,1.22L.63,59.56a4,4,0,0,0,1.23,5.51L42.7,90.69H54.44V0H42.7Z"/></g></g></svg>